<svg width="260" height="260" viewBox="0 0 260 260" fill="none" xmlns="http://www.w3.org/2000/svg">
<path d="M145.379 69.2035L145.807 71.0078L147.08 69.6591L192.833 21.1708L173.717 85.0383L173.185 86.8147L174.962 86.283L238.829 67.1674L190.341 112.92L188.992 114.193L190.797 114.621L255.665 130L190.797 145.379L188.992 145.807L190.341 147.08L238.829 192.833L174.962 173.717L173.185 173.185L173.717 174.962L192.833 238.829L147.08 190.341L145.807 188.992L145.379 190.797L130 255.665L114.621 190.797L114.193 188.992L112.92 190.341L67.1674 238.829L86.283 174.962L86.8147 173.185L85.0383 173.717L21.1708 192.833L69.6591 147.08L71.0078 145.807L69.2035 145.379L4.33485 130L69.2035 114.621L71.0078 114.193L69.6591 112.92L21.1708 67.1674L85.0383 86.283L86.8147 86.8147L86.283 85.0383L67.1674 21.1708L112.92 69.6591L114.193 71.0078L114.621 69.2035L130 4.33485L145.379 69.2035Z" stroke="#C75AF6" stroke-width="2"/>
</svg>
