<svg width="315" height="314" viewBox="0 0 315 314" fill="none" xmlns="http://www.w3.org/2000/svg">
<path d="M152.03 5.60072C152.723 -0.963085 162.277 -0.963085 162.97 5.60072L171.124 82.8814C171.749 88.7995 179.338 90.8367 182.842 86.0268L228.631 23.1753C232.518 17.84 240.789 22.6263 238.099 28.6547L206.458 99.5817C204.032 105.02 209.589 110.587 215.032 108.171L286.111 76.6136C292.146 73.9344 296.917 82.2175 291.571 86.0932L228.689 131.686C223.864 135.184 225.898 142.79 231.825 143.413L309.124 151.53C315.692 152.22 315.692 161.78 309.124 162.47L231.825 170.587C225.898 171.21 223.864 178.816 228.689 182.314L291.571 227.907C296.917 231.783 292.146 240.066 286.111 237.386L215.032 205.829C209.589 203.413 204.032 208.98 206.458 214.418L238.099 285.345C240.789 291.374 232.518 296.16 228.631 290.825L182.842 227.973C179.338 223.163 171.749 225.2 171.124 231.119L162.97 308.399C162.277 314.963 152.723 314.963 152.03 308.399L143.876 231.119C143.251 225.2 135.662 223.163 132.158 227.973L86.3687 290.825C82.4818 296.16 74.2112 291.374 76.9005 285.345L108.542 214.418C110.968 208.98 105.411 203.413 99.9679 205.829L28.8889 237.386C22.8542 240.066 18.0831 231.783 23.4287 227.907L86.3113 182.314C91.1364 178.816 89.102 171.21 83.1747 170.587L5.87564 162.47C-0.691814 161.78 -0.691814 152.22 5.87564 151.53L83.1747 143.413C89.102 142.79 91.1364 135.184 86.3113 131.686L23.4286 86.0932C18.0831 82.2175 22.8541 73.9344 28.8889 76.6136L99.9679 108.171C105.411 110.587 110.968 105.02 108.542 99.5817L76.9005 28.6547C74.2112 22.6263 82.4818 17.84 86.3687 23.1753L132.158 86.0268C135.662 90.8367 143.251 88.7995 143.876 82.8814L152.03 5.60072Z" stroke="#E0B7FA"/>
</svg>
