<svg width="361" height="361" viewBox="0 0 361 361" fill="none" xmlns="http://www.w3.org/2000/svg">
<path d="M202.718 95.8814L202.932 96.7836L203.568 96.1092L269.666 26.0595L242.051 118.327L241.785 119.215L242.673 118.949L334.941 91.3337L264.891 157.432L264.216 158.068L265.119 158.282L358.833 180.5L265.119 202.718L264.216 202.932L264.891 203.568L334.941 269.666L242.673 242.051L241.785 241.785L242.051 242.673L269.666 334.941L203.568 264.891L202.932 264.216L202.718 265.119L180.5 358.833L158.282 265.119L158.068 264.216L157.432 264.891L91.3337 334.941L118.949 242.673L119.215 241.785L118.327 242.051L26.0595 269.666L96.1092 203.568L96.7836 202.932L95.8814 202.718L2.16743 180.5L95.8814 158.282L96.7836 158.068L96.1092 157.432L26.0595 91.3337L118.327 118.949L119.215 119.215L118.949 118.327L91.3337 26.0595L157.432 96.1092L158.068 96.7836L158.282 95.8814L180.5 2.16743L202.718 95.8814Z" stroke="#E442FF" stroke-opacity="0.7"/>
</svg>
